<?xml version="1.0" standalone="no"?>
<!DOCTYPE svg PUBLIC "-//W3C//DTD SVG 20010904//EN"
 "http://www.w3.org/TR/2001/REC-SVG-20010904/DTD/svg10.dtd">
<svg version="1.0" xmlns="http://www.w3.org/2000/svg"
 width="300.000000pt" height="81.000000pt" viewBox="0 0 300.000000 81.000000"
 preserveAspectRatio="xMidYMid meet">

<g transform="translate(0.000000,81.000000) scale(0.100000,-0.100000)"
fill="#000000" stroke="none">
<path d="M614 679 c-36 -10 -91 -67 -100 -104 -16 -66 34 -153 101 -175 40
-13 91 -5 123 19 23 17 23 17 4 34 -17 16 -21 16 -50 2 -39 -20 -75 -11 -107
27 -34 41 -33 82 5 120 31 31 45 32 135 16 28 -5 31 28 3 45 -32 21 -77 27
-114 16z"/>
<path d="M1985 675 c-91 -32 -125 -152 -65 -228 24 -30 99 -62 112 -49 18 18
3 46 -29 54 -41 11 -63 42 -63 89 0 80 103 121 164 64 25 -23 26 -29 26 -120
0 -94 1 -96 23 -93 21 3 22 6 25 146 l3 142 -25 0 c-13 0 -26 -4 -28 -10 -2
-6 -19 -4 -43 5 -49 17 -51 17 -100 0z"/>
<path d="M851 662 c-35 -19 -71 -72 -71 -104 0 -13 8 -18 25 -18 15 0 25 6 25
14 0 8 12 28 26 45 21 26 33 31 67 31 45 -1 67 -13 85 -47 27 -50 2 -115 -53
-133 -45 -15 -50 -50 -7 -50 40 0 91 36 108 75 43 103 -22 205 -131 205 -22 0
-56 -8 -74 -18z"/>
<path d="M1102 538 c3 -140 4 -143 26 -146 21 -3 22 -1 22 88 0 123 14 150 81
150 57 0 68 -20 71 -135 3 -95 4 -100 26 -103 21 -3 22 -1 22 91 0 80 3 98 21
121 16 20 29 26 58 26 59 0 70 -19 73 -135 3 -99 3 -100 28 -100 24 0 25 3 28
70 7 157 -24 215 -116 215 -34 0 -57 -6 -75 -20 l-26 -20 -33 20 c-40 24 -105
26 -136 4 -20 -14 -22 -14 -22 0 0 10 -9 16 -25 16 l-26 0 3 -142z"/>
<path d="M1600 485 l0 -195 25 0 c24 0 25 2 25 70 l0 70 23 -14 c48 -31 119
-24 164 18 33 30 37 39 41 92 3 50 0 64 -20 94 -13 19 -35 40 -48 47 -34 17
-95 16 -130 -2 -27 -14 -30 -14 -30 0 0 9 -9 15 -25 15 l-25 0 0 -195z m205
120 c34 -33 34 -93 1 -132 -19 -22 -32 -28 -66 -28 -34 0 -47 6 -66 28 -33 38
-33 95 1 131 33 36 95 37 130 1z"/>
<path d="M2239 651 c-62 -63 -28 -117 86 -136 62 -11 79 -30 49 -59 -20 -20
-86 -21 -124 -1 -27 14 -30 14 -40 -5 -9 -16 -6 -22 21 -35 41 -21 133 -21
165 0 53 35 56 103 6 129 -15 7 -48 16 -74 20 -25 4 -52 14 -59 23 -11 13 -10
18 10 34 27 22 41 23 95 8 37 -10 55 -3 56 23 0 12 -63 28 -112 28 -41 0 -54
-5 -79 -29z"/>
<path d="M2488 664 c-50 -26 -50 -102 0 -128 15 -7 48 -16 74 -20 25 -4 52
-14 59 -23 11 -13 10 -18 -10 -34 -28 -23 -81 -25 -121 -4 -27 14 -30 14 -40
-5 -9 -16 -6 -22 21 -35 41 -21 133 -21 165 0 37 24 49 58 35 94 -14 31 -41
46 -108 56 -47 7 -67 24 -57 49 9 24 48 30 101 17 37 -10 48 -9 54 1 14 21 11
25 -22 37 -44 15 -119 13 -151 -5z"/>
<path d="M2765 670 c-38 -15 -85 -83 -85 -121 0 -20 55 -5 58 16 12 65 108 90
157 40 18 -17 25 -35 25 -62 0 -47 -19 -76 -60 -93 -18 -8 -30 -20 -30 -31 0
-24 29 -25 71 -4 89 47 93 193 6 245 -33 21 -105 26 -142 10z"/>
<path d="M290 554 c-40 -34 -63 -79 -58 -115 4 -25 1 -29 -19 -29 -13 0 -37 7
-52 14 -38 20 -91 82 -91 106 0 11 -4 20 -10 20 -5 0 -10 -22 -10 -50 0 -41 5
-55 31 -85 55 -62 117 -82 201 -64 58 13 123 65 145 116 18 45 17 60 -12 88
-33 34 -84 33 -125 -1z"/>
<path d="M2850 268 l0 -51 -24 22 c-35 33 -97 39 -141 13 -34 -21 -35 -21 -35
-2 0 17 -7 20 -45 20 l-45 0 0 -71 c0 -67 -1 -70 -22 -67 -21 3 -23 9 -26 71
l-3 67 -40 0 -41 0 3 -84 c3 -72 7 -88 27 -109 13 -14 39 -28 57 -31 40 -8 98
13 113 41 10 17 13 16 41 -11 44 -42 108 -43 150 -1 l31 29 15 -22 c13 -18 68
-42 98 -42 4 0 7 20 7 44 0 35 -4 45 -20 49 -18 5 -20 14 -20 96 l0 91 -40 0
-40 0 0 -52z m-81 -92 c6 -7 9 -21 5 -30 -8 -21 -50 -21 -58 0 -7 19 10 44 29
44 7 0 18 -6 24 -14z"/>
</g>
</svg>
